<?xml version="1.0" encoding="utf-8"?>
<!-- Generator: Adobe Illustrator 19.0.0, SVG Export Plug-In . SVG Version: 6.00 Build 0)  -->
<svg version="1.1" id="Layer_1" xmlns="http://www.w3.org/2000/svg" xmlns:xlink="http://www.w3.org/1999/xlink" x="0px" y="0px"
	 viewBox="0 0 1600 1200" style="enable-background:new 0 0 1600 1200;" xml:space="preserve">
<style type="text/css">
	/* .st0{fill:#6EF9CB;} */
  .st0{fill:#fff; opacity:0.5;}
</style>
<g id="XMLID_110_">
	<g id="XMLID_2_">
		<path id="XMLID_108_" class="st0" d="M1126.7,271.2c0.9,0,0.9-1.4,0-1.4S1125.9,271.2,1126.7,271.2L1126.7,271.2z"/>
	</g>
	<g id="XMLID_3_">
		<path id="XMLID_107_" class="st0" d="M1029.1,232.1c0.9,0,0.9-1.4,0-1.4C1028.1,230.7,1028.1,232.1,1029.1,232.1L1029.1,232.1z"/>
	</g>
	<g id="XMLID_4_">
		<path id="XMLID_106_" class="st0" d="M1495.2,353.5c0.9,0,0.9-1.4,0-1.4C1494.3,352.1,1494.3,353.5,1495.2,353.5L1495.2,353.5z"/>
	</g>
	<g id="XMLID_5_">
		<path id="XMLID_105_" class="st0" d="M1353.3,252.6c0.9,0,0.9-1.4,0-1.4C1352.4,251.2,1352.4,252.6,1353.3,252.6L1353.3,252.6z"/>
	</g>
	<g id="XMLID_6_">
		<path id="XMLID_104_" class="st0" d="M965.4,341.1c0.9,0,0.9-1.4,0-1.4C964.4,339.7,964.4,341.1,965.4,341.1L965.4,341.1z"/>
	</g>
	<g id="XMLID_7_">
		<path id="XMLID_103_" class="st0" d="M853.2,289.9c0.9,0,0.9-1.4,0-1.4C852.2,288.5,852.2,289.9,853.2,289.9L853.2,289.9z"/>
	</g>
	<g id="XMLID_8_">
		<path id="XMLID_102_" class="st0" d="M649.8,88.6c0.9,0,0.9-1.4,0-1.4C648.8,87.2,648.8,88.6,649.8,88.6L649.8,88.6z"/>
	</g>
	<g id="XMLID_9_">
		<path id="XMLID_101_" class="st0" d="M500.9,275.3c0.9,0,0.9-1.4,0-1.4C499.9,273.9,499.9,275.3,500.9,275.3L500.9,275.3z"/>
	</g>
	<g id="XMLID_10_">
		<path id="XMLID_100_" class="st0" d="M522.4,396.2c0.9,0,0.9-1.4,0-1.4C521.5,394.7,521.5,396.2,522.4,396.2L522.4,396.2z"/>
	</g>
	<g id="XMLID_11_">
		<path id="XMLID_99_" class="st0" d="M774.9,337.9c0.9,0,0.9-1.4,0-1.4C774,336.5,774,337.9,774.9,337.9L774.9,337.9z"/>
	</g>
	<g id="XMLID_12_">
		<path id="XMLID_98_" class="st0" d="M755.5,285c0.9,0,0.9-1.4,0-1.4C754.5,283.6,754.5,285,755.5,285L755.5,285z"/>
	</g>
	<g id="XMLID_13_">
		<path id="XMLID_97_" class="st0" d="M722.1,223.5c0.9,0,0.9-1.4,0-1.4C721.1,222.1,721.1,223.5,722.1,223.5L722.1,223.5z"/>
	</g>
	<g id="XMLID_14_">
		<path id="XMLID_96_" class="st0" d="M892.6,137.2c0.9,0,0.9-1.4,0-1.4C891.6,135.8,891.6,137.2,892.6,137.2L892.6,137.2z"/>
	</g>
	<g id="XMLID_15_">
		<path id="XMLID_95_" class="st0" d="M1001.5,176c0.9,0,0.9-1.4,0-1.4C1000.6,174.6,1000.6,176,1001.5,176L1001.5,176z"/>
	</g>
	<g id="XMLID_16_">
		<path id="XMLID_94_" class="st0" d="M1844.3,173.9c0.9,0,0.9-1.4,0-1.4C1843.3,172.5,1843.3,173.9,1844.3,173.9L1844.3,173.9z"/>
	</g>
	<g id="XMLID_17_">
		<path id="XMLID_91_" class="st0" d="M1750.4,156.6c0.9,0,0.9-1.4,0-1.4C1749.5,155.2,1749.5,156.6,1750.4,156.6L1750.4,156.6z"/>
	</g>
	<g id="XMLID_18_">
		<path id="XMLID_90_" class="st0" d="M1755.8,223.5c0.9,0,0.9-1.4,0-1.4C1754.9,222.1,1754.9,223.5,1755.8,223.5L1755.8,223.5z"/>
	</g>
	<g id="XMLID_19_">
		<path id="XMLID_89_" class="st0" d="M1701.9,287.2c0.9,0,0.9-1.4,0-1.4C1700.9,285.8,1700.9,287.2,1701.9,287.2L1701.9,287.2z"/>
	</g>
	<g id="XMLID_20_">
		<path id="XMLID_88_" class="st0" d="M1618.8,273.1c0.9,0,0.9-1.4,0-1.4C1617.8,271.7,1617.8,273.1,1618.8,273.1L1618.8,273.1z"/>
	</g>
	<g id="XMLID_21_">
		<path id="XMLID_87_" class="st0" d="M1659.8,372.4c0.9,0,0.9-1.4,0-1.4C1658.8,371,1658.8,372.4,1659.8,372.4L1659.8,372.4z"/>
	</g>
	<g id="XMLID_22_">
		<path id="XMLID_86_" class="st0" d="M1827.1,417.7c0.9,0,0.9-1.4,0-1.4C1826.1,416.3,1826.1,417.7,1827.1,417.7L1827.1,417.7z"/>
	</g>
	<g id="XMLID_23_">
		<path id="XMLID_84_" class="st0" d="M1387.6,395.7c0.9,0,0.9-1.4,0-1.4C1386.7,394.3,1386.7,395.7,1387.6,395.7L1387.6,395.7z"/>
	</g>
	<g id="XMLID_24_">
		<path id="XMLID_83_" class="st0" d="M1145.9,430.3c0.9,0,0.9-1.4,0-1.4C1145,428.8,1145,430.3,1145.9,430.3L1145.9,430.3z"/>
	</g>
	<g id="XMLID_25_">
		<path id="XMLID_82_" class="st0" d="M1209.9,371.2c0.4,0,1,0,1.4,0c0.2,0,0.3-0.1,0.5-0.2c0.1-0.1,0.2-0.3,0.2-0.5
			c0-0.4-0.3-0.8-0.8-0.8s-1,0-1.4,0c-0.2,0-0.3,0.1-0.5,0.2c-0.1,0.1-0.2,0.3-0.2,0.5C1209.3,370.9,1209.5,371.2,1209.9,371.2
			L1209.9,371.2z"/>
	</g>
	<g id="XMLID_26_">
		<path id="XMLID_79_" class="st0" d="M1316.4,355.5c0.9,0,0.9-1.4,0-1.4C1315.5,354.1,1315.5,355.5,1316.4,355.5L1316.4,355.5z"/>
	</g>
	<g id="XMLID_27_">
		<path id="XMLID_78_" class="st0" d="M1153.8,132.4c0.9,0,0.9-1.4,0-1.4S1152.9,132.4,1153.8,132.4L1153.8,132.4z"/>
	</g>
	<g id="XMLID_28_">
		<path id="XMLID_77_" class="st0" d="M1376.9,79.9c0.4,0,1,0,1.4,0c0.2,0,0.3-0.1,0.5-0.2c0.1-0.1,0.2-0.3,0.2-0.5
			c0-0.4-0.3-0.8-0.8-0.8s-1,0-1.4,0c-0.2,0-0.3,0.1-0.5,0.2c-0.1,0.1-0.2,0.3-0.2,0.5C1376.1,79.5,1376.4,79.9,1376.9,79.9
			L1376.9,79.9z"/>
	</g>
	<g id="XMLID_29_">
		<path id="XMLID_76_" class="st0" d="M1461.7,131c0.9,0,0.9-1.4,0-1.4S1460.8,131,1461.7,131L1461.7,131z"/>
	</g>
	<g id="XMLID_30_">
		<path id="XMLID_75_" class="st0" d="M1291.9,169.1c0.9,0,0.9-1.4,0-1.4C1291.1,167.7,1291.1,169.1,1291.9,169.1L1291.9,169.1z"/>
	</g>
	<g id="XMLID_31_">
		<path id="XMLID_74_" class="st0" d="M1454.6,268.4c0.9,0,0.9-1.4,0-1.4C1453.6,267,1453.6,268.4,1454.6,268.4L1454.6,268.4z"/>
	</g>
	<g id="XMLID_32_">
		<path id="XMLID_69_" class="st0" d="M997,438.1c0.9,0,0.9-1.4,0-1.4C996,436.7,996,438.1,997,438.1L997,438.1z"/>
	</g>
	<g id="XMLID_33_">
		<path id="XMLID_63_" class="st0" d="M1755.2,446.8c0.9,0,0.9-1.4,0-1.4C1754.3,445.4,1754.3,446.8,1755.2,446.8L1755.2,446.8z"/>
	</g>
	<g id="XMLID_555_">
		<g id="XMLID_625_">
			<path id="XMLID_626_" class="st0" d="M362.1,696c0.9,0,0.9-1.4,0-1.4C361.2,694.6,361.2,696,362.1,696L362.1,696z"/>
		</g>
		<g id="XMLID_622_">
			<path id="XMLID_623_" class="st0" d="M382.7,844.9c0.9,0,0.9-1.4,0-1.4C381.7,843.5,381.7,844.9,382.7,844.9L382.7,844.9z"/>
		</g>
		<g id="XMLID_620_">
			<path id="XMLID_621_" class="st0" d="M681.3,909.3c0.9,0,0.9-1.4,0-1.4C680.4,907.8,680.4,909.3,681.3,909.3L681.3,909.3z"/>
		</g>
		<g id="XMLID_616_">
			<path id="XMLID_618_" class="st0" d="M936,895.5c0.9,0,0.9-1.4,0-1.4C935,894.1,935,895.5,936,895.5L936,895.5z"/>
		</g>
		<g id="XMLID_614_">
			<path id="XMLID_615_" class="st0" d="M848.2,799.9c0.9,0,0.9-1.4,0-1.4C847.3,798.5,847.3,799.9,848.2,799.9L848.2,799.9z"/>
		</g>
		<g id="XMLID_612_">
			<path id="XMLID_613_" class="st0" d="M861.9,730.1c0.9,0,0.9-1.4,0-1.4S861,730.1,861.9,730.1L861.9,730.1z"/>
		</g>
		<g id="XMLID_610_">
			<path id="XMLID_611_" class="st0" d="M710,702.8c0.9,0,0.9-1.4,0-1.4C709.2,701.4,709.2,702.8,710,702.8L710,702.8z"/>
		</g>
		<g id="XMLID_608_">
			<path id="XMLID_609_" class="st0" d="M669.8,785.5c0.9,0,0.9-1.4,0-1.4C668.9,784.1,668.9,785.5,669.8,785.5L669.8,785.5z"/>
		</g>
		<g id="XMLID_606_">
			<path id="XMLID_607_" class="st0" d="M594.3,751.7c0.9,0,0.9-1.4,0-1.4S593.4,751.7,594.3,751.7L594.3,751.7z"/>
		</g>
		<g id="XMLID_604_">
			<path id="XMLID_605_" class="st0" d="M558.3,687c0.9,0,0.9-1.4,0-1.4C557.4,685.6,557.4,687,558.3,687L558.3,687z"/>
		</g>
		<g id="XMLID_602_">
			<path id="XMLID_603_" class="st0" d="M762.6,608.5c0.9,0,0.9-1.4,0-1.4C761.7,607.1,761.7,608.5,762.6,608.5L762.6,608.5z"/>
		</g>
		<g id="XMLID_599_">
			<path id="XMLID_601_" class="st0" d="M761.8,582c0.9,0,0.9-1.4,0-1.4C761,580.6,761,582,761.8,582L761.8,582z"/>
		</g>
		<g id="XMLID_597_">
			<path id="XMLID_598_" class="st0" d="M675.5,558.9c0.9,0,0.9-1.4,0-1.4S674.7,558.9,675.5,558.9L675.5,558.9z"/>
		</g>
		<g id="XMLID_593_">
			<path id="XMLID_594_" class="st0" d="M499.3,583.4c0.9,0,0.9-1.4,0-1.4C498.4,582,498.4,583.4,499.3,583.4L499.3,583.4z"/>
		</g>
		<g id="XMLID_591_">
			<path id="XMLID_592_" class="st0" d="M423,558.9c0.9,0,0.9-1.4,0-1.4C422.1,557.5,422.1,558.9,423,558.9L423,558.9z"/>
		</g>
		<g id="XMLID_589_">
			<path id="XMLID_590_" class="st0" d="M523,729.4c0.9,0,0.9-1.4,0-1.4S522.2,729.4,523,729.4L523,729.4z"/>
		</g>
		<g id="XMLID_587_">
			<path id="XMLID_588_" class="st0" d="M473.4,792.7c0.9,0,0.9-1.4,0-1.4C472.5,791.3,472.5,792.7,473.4,792.7L473.4,792.7z"/>
		</g>
		<g id="XMLID_584_">
			<path id="XMLID_585_" class="st0" d="M599.3,869c0.9,0,0.9-1.4,0-1.4C598.4,867.6,598.4,869,599.3,869L599.3,869z"/>
		</g>
		<g id="XMLID_582_">
			<path id="XMLID_583_" class="st0" d="M451.1,934.4c0.9,0,0.9-1.4,0-1.4C450.2,933,450.2,934.4,451.1,934.4L451.1,934.4z"/>
		</g>
	</g>
	<g id="XMLID_34_">
		<path id="XMLID_62_" class="st0" d="M1792.6,364.7c0.9,0,0.9-1.4,0-1.4C1791.8,363.3,1791.8,364.7,1792.6,364.7L1792.6,364.7z"/>
	</g>
	<g id="XMLID_35_">
		<path id="XMLID_61_" class="st0" d="M1238.7,82c0.9,0,0.9-1.4,0-1.4C1237.8,80.6,1237.8,82,1238.7,82L1238.7,82z"/>
	</g>
	<g id="XMLID_36_">
		<path id="XMLID_59_" class="st0" d="M1019.2,66.9c0.9,0,0.9-1.4,0-1.4C1018.4,65.5,1018.4,66.9,1019.2,66.9L1019.2,66.9z"/>
	</g>
	<g id="XMLID_37_">
		<path id="XMLID_55_" class="st0" d="M838.7,222.3c0.9,0,0.9-1.4,0-1.4C837.9,220.9,837.9,222.3,838.7,222.3L838.7,222.3z"/>
	</g>
	<g id="XMLID_38_">
		<path id="XMLID_54_" class="st0" d="M603.5,176.3c0.9,0,0.9-1.4,0-1.4C602.6,174.9,602.6,176.3,603.5,176.3L603.5,176.3z"/>
	</g>
	<g id="XMLID_39_">
		<path id="XMLID_53_" class="st0" d="M536.6,108.7c0.9,0,0.9-1.4,0-1.4C535.7,107.3,535.7,108.7,536.6,108.7L536.6,108.7z"/>
	</g>
	<g id="XMLID_40_">
		<path id="XMLID_52_" class="st0" d="M827.2,83.5c0.9,0,0.9-1.4,0-1.4C826.3,82.1,826.3,83.5,827.2,83.5L827.2,83.5z"/>
	</g>
	<g id="XMLID_628_">
		<g id="XMLID_667_">
			<path id="XMLID_668_" class="st0" d="M1693.4,723c0.9,0,0.9-1.4,0-1.4S1692.5,723,1693.4,723L1693.4,723z"/>
		</g>
		<g id="XMLID_665_">
			<path id="XMLID_666_" class="st0" d="M1583.3,546c0.9,0,0.9-1.4,0-1.4S1582.5,546,1583.3,546L1583.3,546z"/>
		</g>
		<g id="XMLID_662_">
			<path id="XMLID_664_" class="st0" d="M1756,533.1c0.9,0,0.9-1.4,0-1.4S1755.1,533.1,1756,533.1L1756,533.1z"/>
		</g>
		<g id="XMLID_658_">
			<path id="XMLID_661_" class="st0" d="M1766.8,651.8c0.9,0,0.9-1.4,0-1.4S1765.9,651.8,1766.8,651.8L1766.8,651.8z"/>
		</g>
		<g id="XMLID_656_">
			<path id="XMLID_657_" class="st0" d="M1594.1,770.5c0.9,0,0.9-1.4,0-1.4S1593.2,770.5,1594.1,770.5L1594.1,770.5z"/>
		</g>
		<g id="XMLID_654_">
			<path id="XMLID_655_" class="st0" d="M1555.3,859c0.9,0,0.9-1.4,0-1.4S1554.4,859,1555.3,859L1555.3,859z"/>
		</g>
		<g id="XMLID_652_">
			<path id="XMLID_653_" class="st0" d="M1363.2,874.1c0.9,0,0.9-1.4,0-1.4C1362.3,872.7,1362.3,874.1,1363.2,874.1L1363.2,874.1z"
				/>
		</g>
		<g id="XMLID_650_">
			<path id="XMLID_651_" class="st0" d="M1376.1,766.2c0.9,0,0.9-1.4,0-1.4S1375.3,766.2,1376.1,766.2L1376.1,766.2z"/>
		</g>
		<g id="XMLID_648_">
			<path id="XMLID_649_" class="st0" d="M1516.4,761.8c0.9,0,0.9-1.4,0-1.4C1515.5,760.4,1515.5,761.8,1516.4,761.8L1516.4,761.8z"
				/>
		</g>
		<g id="XMLID_646_">
			<path id="XMLID_647_" class="st0" d="M1475.4,805c0.9,0,0.9-1.4,0-1.4C1474.5,803.6,1474.5,805,1475.4,805L1475.4,805z"/>
		</g>
		<g id="XMLID_644_">
			<path id="XMLID_645_" class="st0" d="M1406.3,686.3c0.9,0,0.9-1.4,0-1.4C1405.5,684.9,1405.5,686.3,1406.3,686.3L1406.3,686.3z"
				/>
		</g>
		<g id="XMLID_642_">
			<path id="XMLID_643_" class="st0" d="M1307.1,651.8c0.9,0,0.9-1.4,0-1.4S1306.2,651.8,1307.1,651.8L1307.1,651.8z"/>
		</g>
		<g id="XMLID_640_">
			<path id="XMLID_641_" class="st0" d="M1287.6,759.7c0.9,0,0.9-1.4,0-1.4S1286.8,759.7,1287.6,759.7L1287.6,759.7z"/>
		</g>
		<g id="XMLID_638_">
			<path id="XMLID_639_" class="st0" d="M1218.6,833.1c0.9,0,0.9-1.4,0-1.4C1217.7,831.7,1217.7,833.1,1218.6,833.1L1218.6,833.1z"
				/>
		</g>
		<g id="XMLID_635_">
			<path id="XMLID_637_" class="st0" d="M1246.6,604.3c0.9,0,0.9-1.4,0-1.4S1245.8,604.3,1246.6,604.3L1246.6,604.3z"/>
		</g>
		<g id="XMLID_633_">
			<path id="XMLID_634_" class="st0" d="M1244.5,518c0.9,0,0.9-1.4,0-1.4S1243.6,518,1244.5,518L1244.5,518z"/>
		</g>
		<g id="XMLID_629_">
			<path id="XMLID_631_" class="st0" d="M1436.6,571.9c0.9,0,0.9-1.4,0-1.4C1435.7,570.5,1435.7,571.9,1436.6,571.9L1436.6,571.9z"
				/>
		</g>
	</g>
</g>
<g id="XMLID_1_">
	<g id="XMLID_231_">
		<path id="XMLID_232_" class="st0" d="M823.5,371.2c0.9,0,0.9-1.4,0-1.4C822.7,369.8,822.7,371.2,823.5,371.2L823.5,371.2z"/>
	</g>
	<g id="XMLID_229_">
		<path id="XMLID_230_" class="st0" d="M725.9,332.2c0.9,0,0.9-1.4,0-1.4C724.9,330.8,724.9,332.2,725.9,332.2L725.9,332.2z"/>
	</g>
	<g id="XMLID_227_">
		<path id="XMLID_228_" class="st0" d="M1192,453.6c0.9,0,0.9-1.4,0-1.4C1191.1,452.2,1191.1,453.6,1192,453.6L1192,453.6z"/>
	</g>
	<g id="XMLID_225_">
		<path id="XMLID_226_" class="st0" d="M1050.1,352.7c0.9,0,0.9-1.4,0-1.4C1049.2,351.3,1049.2,352.7,1050.1,352.7L1050.1,352.7z"/>
	</g>
	<g id="XMLID_223_">
		<path id="XMLID_224_" class="st0" d="M662.2,441.2c0.9,0,0.9-1.4,0-1.4C661.2,439.8,661.2,441.2,662.2,441.2L662.2,441.2z"/>
	</g>
	<g id="XMLID_221_">
		<path id="XMLID_222_" class="st0" d="M550,389.9c0.9,0,0.9-1.4,0-1.4C549,388.5,549,389.9,550,389.9L550,389.9z"/>
	</g>
	<g id="XMLID_219_">
		<path id="XMLID_220_" class="st0" d="M346.6,188.7c0.9,0,0.9-1.4,0-1.4C345.6,187.3,345.6,188.7,346.6,188.7L346.6,188.7z"/>
	</g>
	<g id="XMLID_217_">
		<path id="XMLID_218_" class="st0" d="M197.7,375.3c0.9,0,0.9-1.4,0-1.4C196.7,373.9,196.7,375.3,197.7,375.3L197.7,375.3z"/>
	</g>
	<g id="XMLID_215_">
		<path id="XMLID_216_" class="st0" d="M219.2,496.2c0.9,0,0.9-1.4,0-1.4C218.3,494.8,218.3,496.2,219.2,496.2L219.2,496.2z"/>
	</g>
	<g id="XMLID_213_">
		<path id="XMLID_214_" class="st0" d="M471.7,437.9c0.9,0,0.9-1.4,0-1.4C470.8,436.5,470.8,437.9,471.7,437.9L471.7,437.9z"/>
	</g>
	<g id="XMLID_211_">
		<path id="XMLID_212_" class="st0" d="M452.3,385c0.9,0,0.9-1.4,0-1.4C451.4,383.6,451.4,385,452.3,385L452.3,385z"/>
	</g>
	<g id="XMLID_209_">
		<path id="XMLID_210_" class="st0" d="M418.9,323.5c0.9,0,0.9-1.4,0-1.4C417.9,322.1,417.9,323.5,418.9,323.5L418.9,323.5z"/>
	</g>
	<g id="XMLID_207_">
		<path id="XMLID_208_" class="st0" d="M589.4,237.2c0.9,0,0.9-1.4,0-1.4C588.4,235.8,588.4,237.2,589.4,237.2L589.4,237.2z"/>
	</g>
	<g id="XMLID_205_">
		<path id="XMLID_206_" class="st0" d="M698.4,276.1c0.9,0,0.9-1.4,0-1.4C697.4,274.7,697.4,276.1,698.4,276.1L698.4,276.1z"/>
	</g>
	<g id="XMLID_203_">
		<path id="XMLID_204_" class="st0" d="M1541.1,273.9c0.9,0,0.9-1.4,0-1.4C1540.2,272.5,1540.2,273.9,1541.1,273.9L1541.1,273.9z"/>
	</g>
	<g id="XMLID_201_">
		<path id="XMLID_202_" class="st0" d="M1447.2,256.6c0.9,0,0.9-1.4,0-1.4C1446.3,255.2,1446.3,256.6,1447.2,256.6L1447.2,256.6z"/>
	</g>
	<g id="XMLID_199_">
		<path id="XMLID_200_" class="st0" d="M1452.6,323.5c0.9,0,0.9-1.4,0-1.4C1451.7,322.1,1451.7,323.5,1452.6,323.5L1452.6,323.5z"/>
	</g>
	<g id="XMLID_197_">
		<path id="XMLID_198_" class="st0" d="M1398.7,387.2c0.9,0,0.9-1.4,0-1.4C1397.7,385.8,1397.7,387.2,1398.7,387.2L1398.7,387.2z"/>
	</g>
	<g id="XMLID_195_">
		<path id="XMLID_196_" class="st0" d="M1315.6,373.2c0.9,0,0.9-1.4,0-1.4C1314.6,371.8,1314.6,373.2,1315.6,373.2L1315.6,373.2z"/>
	</g>
	<g id="XMLID_193_">
		<path id="XMLID_194_" class="st0" d="M1356.6,472.5c0.9,0,0.9-1.4,0-1.4C1355.6,471.1,1355.6,472.5,1356.6,472.5L1356.6,472.5z"/>
	</g>
	<g id="XMLID_191_">
		<path id="XMLID_192_" class="st0" d="M1523.9,517.8c0.9,0,0.9-1.4,0-1.4C1522.9,516.4,1522.9,517.8,1523.9,517.8L1523.9,517.8z"/>
	</g>
	<g id="XMLID_189_">
		<path id="XMLID_190_" class="st0" d="M1084.5,495.8c0.9,0,0.9-1.4,0-1.4C1083.5,494.4,1083.5,495.8,1084.5,495.8L1084.5,495.8z"/>
	</g>
	<g id="XMLID_187_">
		<path id="XMLID_188_" class="st0" d="M842.7,530.3c0.9,0,0.9-1.4,0-1.4C841.8,528.9,841.8,530.3,842.7,530.3L842.7,530.3z"/>
	</g>
	<g id="XMLID_185_">
		<path id="XMLID_186_" class="st0" d="M906.7,471.3c0.4,0,1,0,1.4,0c0.2,0,0.3-0.1,0.5-0.2c0.1-0.1,0.2-0.3,0.2-0.5
			c0-0.4-0.3-0.8-0.8-0.8c-0.4,0-1,0-1.4,0c-0.2,0-0.3,0.1-0.5,0.2c-0.1,0.1-0.2,0.3-0.2,0.5C906.1,470.9,906.3,471.3,906.7,471.3
			L906.7,471.3z"/>
	</g>
	<g id="XMLID_183_">
		<path id="XMLID_184_" class="st0" d="M1013.2,455.5c0.9,0,0.9-1.4,0-1.4C1012.3,454.1,1012.3,455.5,1013.2,455.5L1013.2,455.5z"/>
	</g>
	<g id="XMLID_181_">
		<path id="XMLID_182_" class="st0" d="M850.6,232.5c0.9,0,0.9-1.4,0-1.4S849.8,232.5,850.6,232.5L850.6,232.5z"/>
	</g>
	<g id="XMLID_179_">
		<path id="XMLID_180_" class="st0" d="M1073.7,179.9c0.4,0,1,0,1.4,0c0.2,0,0.3-0.1,0.5-0.2c0.1-0.1,0.2-0.3,0.2-0.5
			c0-0.4-0.3-0.8-0.8-0.8s-1,0-1.4,0c-0.2,0-0.3,0.1-0.5,0.2c-0.1,0.1-0.2,0.3-0.2,0.5C1072.9,179.6,1073.2,179.9,1073.7,179.9
			L1073.7,179.9z"/>
	</g>
	<g id="XMLID_177_">
		<path id="XMLID_178_" class="st0" d="M1158.5,231.1c0.9,0,0.9-1.4,0-1.4S1157.6,231.1,1158.5,231.1L1158.5,231.1z"/>
	</g>
	<g id="XMLID_175_">
		<path id="XMLID_176_" class="st0" d="M988.7,269.2c0.9,0,0.9-1.4,0-1.4S987.9,269.2,988.7,269.2L988.7,269.2z"/>
	</g>
	<g id="XMLID_173_">
		<path id="XMLID_174_" class="st0" d="M1151.4,368.4c0.9,0,0.9-1.4,0-1.4C1150.4,367,1150.4,368.4,1151.4,368.4L1151.4,368.4z"/>
	</g>
	<g id="XMLID_171_">
		<path id="XMLID_172_" class="st0" d="M693.8,538.2c0.9,0,0.9-1.4,0-1.4C692.9,536.8,692.9,538.2,693.8,538.2L693.8,538.2z"/>
	</g>
	<g id="XMLID_169_">
		<path id="XMLID_170_" class="st0" d="M1452,546.8c0.9,0,0.9-1.4,0-1.4C1451.1,545.4,1451.1,546.8,1452,546.8L1452,546.8z"/>
	</g>
	<g id="XMLID_130_">
		<g id="XMLID_167_">
			<path id="XMLID_168_" class="st0" d="M59,796.1c0.9,0,0.9-1.4,0-1.4C58,794.7,58,796.1,59,796.1L59,796.1z"/>
		</g>
		<g id="XMLID_165_">
			<path id="XMLID_166_" class="st0" d="M79.5,945c0.9,0,0.9-1.4,0-1.4C78.5,943.6,78.5,945,79.5,945L79.5,945z"/>
		</g>
		<g id="XMLID_163_">
			<path id="XMLID_164_" class="st0" d="M378.2,1009.3c0.9,0,0.9-1.4,0-1.4C377.2,1007.9,377.2,1009.3,378.2,1009.3L378.2,1009.3z"
				/>
		</g>
		<g id="XMLID_161_">
			<path id="XMLID_162_" class="st0" d="M632.8,995.6c0.9,0,0.9-1.4,0-1.4C631.8,994.2,631.8,995.6,632.8,995.6L632.8,995.6z"/>
		</g>
		<g id="XMLID_159_">
			<path id="XMLID_160_" class="st0" d="M545,900c0.9,0,0.9-1.4,0-1.4C544.1,898.6,544.1,900,545,900L545,900z"/>
		</g>
		<g id="XMLID_157_">
			<path id="XMLID_158_" class="st0" d="M558.7,830.2c0.9,0,0.9-1.4,0-1.4S557.8,830.2,558.7,830.2L558.7,830.2z"/>
		</g>
		<g id="XMLID_155_">
			<path id="XMLID_156_" class="st0" d="M406.9,802.9c0.9,0,0.9-1.4,0-1.4C406,801.5,406,802.9,406.9,802.9L406.9,802.9z"/>
		</g>
		<g id="XMLID_153_">
			<path id="XMLID_154_" class="st0" d="M366.6,885.5c0.9,0,0.9-1.4,0-1.4C365.7,884.1,365.7,885.5,366.6,885.5L366.6,885.5z"/>
		</g>
		<g id="XMLID_151_">
			<path id="XMLID_152_" class="st0" d="M291.1,851.7c0.9,0,0.9-1.4,0-1.4C290.2,850.3,290.2,851.7,291.1,851.7L291.1,851.7z"/>
		</g>
		<g id="XMLID_149_">
			<path id="XMLID_150_" class="st0" d="M255.1,787c0.9,0,0.9-1.4,0-1.4C254.2,785.6,254.2,787,255.1,787L255.1,787z"/>
		</g>
		<g id="XMLID_147_">
			<path id="XMLID_148_" class="st0" d="M459.4,708.6c0.9,0,0.9-1.4,0-1.4C458.5,707.2,458.5,708.6,459.4,708.6L459.4,708.6z"/>
		</g>
		<g id="XMLID_145_">
			<path id="XMLID_146_" class="st0" d="M458.7,682c0.9,0,0.9-1.4,0-1.4C457.8,680.6,457.8,682,458.7,682L458.7,682z"/>
		</g>
		<g id="XMLID_143_">
			<path id="XMLID_144_" class="st0" d="M372.3,658.9c0.9,0,0.9-1.4,0-1.4C371.5,657.5,371.5,658.9,372.3,658.9L372.3,658.9z"/>
		</g>
		<g id="XMLID_141_">
			<path id="XMLID_142_" class="st0" d="M196.1,683.4c0.9,0,0.9-1.4,0-1.4C195.2,682,195.2,683.4,196.1,683.4L196.1,683.4z"/>
		</g>
		<g id="XMLID_139_">
			<path id="XMLID_140_" class="st0" d="M119.8,658.9c0.9,0,0.9-1.4,0-1.4C119,657.5,119,658.9,119.8,658.9L119.8,658.9z"/>
		</g>
		<g id="XMLID_137_">
			<path id="XMLID_138_" class="st0" d="M219.8,829.4c0.9,0,0.9-1.4,0-1.4S219,829.4,219.8,829.4L219.8,829.4z"/>
		</g>
		<g id="XMLID_135_">
			<path id="XMLID_136_" class="st0" d="M170.2,892.8c0.9,0,0.9-1.4,0-1.4C169.3,891.4,169.3,892.8,170.2,892.8L170.2,892.8z"/>
		</g>
		<g id="XMLID_133_">
			<path id="XMLID_134_" class="st0" d="M296.1,969c0.9,0,0.9-1.4,0-1.4C295.2,967.6,295.2,969,296.1,969L296.1,969z"/>
		</g>
		<g id="XMLID_131_">
			<path id="XMLID_132_" class="st0" d="M147.9,1034.4c0.9,0,0.9-1.4,0-1.4C147,1033,147,1034.4,147.9,1034.4L147.9,1034.4z"/>
		</g>
	</g>
	<g id="XMLID_128_">
		<path id="XMLID_129_" class="st0" d="M1489.4,464.8c0.9,0,0.9-1.4,0-1.4C1488.6,463.4,1488.6,464.8,1489.4,464.8L1489.4,464.8z"/>
	</g>
	<g id="XMLID_126_">
		<path id="XMLID_127_" class="st0" d="M935.5,182.1c0.9,0,0.9-1.4,0-1.4C934.6,180.7,934.6,182.1,935.5,182.1L935.5,182.1z"/>
	</g>
	<g id="XMLID_124_">
		<path id="XMLID_125_" class="st0" d="M716.1,167c0.9,0,0.9-1.4,0-1.4S715.2,167,716.1,167L716.1,167z"/>
	</g>
	<g id="XMLID_122_">
		<path id="XMLID_123_" class="st0" d="M535.5,322.4c0.9,0,0.9-1.4,0-1.4C534.7,321,534.7,322.4,535.5,322.4L535.5,322.4z"/>
	</g>
	<g id="XMLID_120_">
		<path id="XMLID_121_" class="st0" d="M300.3,276.4c0.9,0,0.9-1.4,0-1.4S299.4,276.4,300.3,276.4L300.3,276.4z"/>
	</g>
	<g id="XMLID_118_">
		<path id="XMLID_119_" class="st0" d="M233.4,208.7c0.9,0,0.9-1.4,0-1.4C232.5,207.3,232.5,208.7,233.4,208.7L233.4,208.7z"/>
	</g>
	<g id="XMLID_116_">
		<path id="XMLID_117_" class="st0" d="M524,183.6c0.9,0,0.9-1.4,0-1.4C523.1,182.2,523.1,183.6,524,183.6L524,183.6z"/>
	</g>
	<g id="XMLID_41_">
		<g id="XMLID_114_">
			<path id="XMLID_115_" class="st0" d="M1390.2,823c0.9,0,0.9-1.4,0-1.4S1389.3,823,1390.2,823L1390.2,823z"/>
		</g>
		<g id="XMLID_112_">
			<path id="XMLID_113_" class="st0" d="M1280.1,646.1c0.9,0,0.9-1.4,0-1.4S1279.3,646.1,1280.1,646.1L1280.1,646.1z"/>
		</g>
		<g id="XMLID_109_">
			<path id="XMLID_111_" class="st0" d="M1452.8,633.1c0.9,0,0.9-1.4,0-1.4S1451.9,633.1,1452.8,633.1L1452.8,633.1z"/>
		</g>
		<g id="XMLID_92_">
			<path id="XMLID_93_" class="st0" d="M1463.6,751.8c0.9,0,0.9-1.4,0-1.4S1462.7,751.8,1463.6,751.8L1463.6,751.8z"/>
		</g>
		<g id="XMLID_81_">
			<path id="XMLID_85_" class="st0" d="M1290.9,870.5c0.9,0,0.9-1.4,0-1.4S1290,870.5,1290.9,870.5L1290.9,870.5z"/>
		</g>
		<g id="XMLID_73_">
			<path id="XMLID_80_" class="st0" d="M1252.1,959c0.9,0,0.9-1.4,0-1.4S1251.2,959,1252.1,959L1252.1,959z"/>
		</g>
		<g id="XMLID_71_">
			<path id="XMLID_72_" class="st0" d="M1060,974.1c0.9,0,0.9-1.4,0-1.4C1059.1,972.7,1059.1,974.1,1060,974.1L1060,974.1z"/>
		</g>
		<g id="XMLID_68_">
			<path id="XMLID_70_" class="st0" d="M1072.9,866.2c0.9,0,0.9-1.4,0-1.4S1072.1,866.2,1072.9,866.2L1072.9,866.2z"/>
		</g>
		<g id="XMLID_66_">
			<path id="XMLID_67_" class="st0" d="M1213.2,861.9c0.9,0,0.9-1.4,0-1.4C1212.4,860.5,1212.4,861.9,1213.2,861.9L1213.2,861.9z"/>
		</g>
		<g id="XMLID_64_">
			<path id="XMLID_65_" class="st0" d="M1172.2,905.1c0.9,0,0.9-1.4,0-1.4C1171.3,903.7,1171.3,905.1,1172.2,905.1L1172.2,905.1z"/>
		</g>
		<g id="XMLID_58_">
			<path id="XMLID_60_" class="st0" d="M1103.2,786.4c0.9,0,0.9-1.4,0-1.4C1102.3,785,1102.3,786.4,1103.2,786.4L1103.2,786.4z"/>
		</g>
		<g id="XMLID_56_">
			<path id="XMLID_57_" class="st0" d="M1003.9,751.8c0.9,0,0.9-1.4,0-1.4S1003,751.8,1003.9,751.8L1003.9,751.8z"/>
		</g>
		<g id="XMLID_50_">
			<path id="XMLID_51_" class="st0" d="M984.5,859.7c0.9,0,0.9-1.4,0-1.4C983.6,858.3,983.6,859.7,984.5,859.7L984.5,859.7z"/>
		</g>
		<g id="XMLID_48_">
			<path id="XMLID_49_" class="st0" d="M915.4,933.1c0.9,0,0.9-1.4,0-1.4C914.5,931.7,914.5,933.1,915.4,933.1L915.4,933.1z"/>
		</g>
		<g id="XMLID_46_">
			<path id="XMLID_47_" class="st0" d="M943.4,704.3c0.9,0,0.9-1.4,0-1.4C942.6,702.9,942.6,704.3,943.4,704.3L943.4,704.3z"/>
		</g>
		<g id="XMLID_44_">
			<path id="XMLID_45_" class="st0" d="M941.3,618c0.9,0,0.9-1.4,0-1.4C940.4,616.6,940.4,618,941.3,618L941.3,618z"/>
		</g>
		<g id="XMLID_42_">
			<path id="XMLID_43_" class="st0" d="M1133.4,672c0.9,0,0.9-1.4,0-1.4C1132.5,670.6,1132.5,672,1133.4,672L1133.4,672z"/>
		</g>
	</g>
</g>
</svg>
