<svg height="512" width="512" viewBox="0 0 512 512" xmlns="http://www.w3.org/2000/svg">
  <path fill="currentColor" d="M509.796 326.874C464.939 239.409 367.313 160 256 160 143.906 160 46.564 240.377 2.204 326.874a20.002 20.002 0 000 18.253C47.061 432.591 144.687 512 256 512c126.04 0 218.947-98.922 253.796-166.874a20 20 0 000-18.252zM256 472c-90.776 0-166.974-60.307-212.956-136C88.517 261.145 164.472 200 256 200c91.137 0 167.232 60.735 212.956 136C422.762 412.038 346.259 472 256 472zM6.303 111.172c7.39-8.209 20.037-8.871 28.246-1.48l44.544 40.107c8.208 7.392 8.871 20.037 1.48 28.246-7.391 8.21-20.038 8.87-28.246 1.48L7.783 139.417c-8.208-7.39-8.871-20.036-1.48-28.245zM236 100V20c0-11.045 8.954-20 20-20s20 8.955 20 20v80c0 11.045-8.954 20-20 20s-20-8.955-20-20zM109.2 55.455c-4.493-10.091.045-21.913 10.136-26.406 10.092-4.493 21.913.045 26.406 10.136l30.587 68.7c4.493 10.09-.045 21.913-10.136 26.406-10.062 4.479-21.898-.014-26.406-10.136zm322.227 122.59c-7.391-8.208-6.729-20.854 1.48-28.246l44.544-40.107c8.208-7.391 20.855-6.729 28.246 1.48 7.391 8.208 6.729 20.854-1.48 28.245l-44.544 40.108c-8.211 7.392-20.856 6.727-28.246-1.48zm-95.757-70.16l30.587-68.7c4.493-10.091 16.315-14.629 26.406-10.136s14.629 16.315 10.136 26.406l-30.587 68.699c-4.513 10.137-16.36 14.609-26.406 10.137-10.09-4.493-14.628-16.315-10.136-26.406zM256 237.75c-54.175 0-98.25 44.075-98.25 98.25s44.075 98.25 98.25 98.25 98.25-44.075 98.25-98.25-44.075-98.25-98.25-98.25zm0 156.5c-32.119 0-58.25-26.131-58.25-58.25s26.131-58.25 58.25-58.25 58.25 26.131 58.25 58.25-26.131 58.25-58.25 58.25z"/>
</svg>
